<?xml version="1.0" encoding="UTF-8"?>
<svg width="990px" height="222px" viewBox="0 0 990 222" version="1.1" xmlns="http://www.w3.org/2000/svg" xmlns:xlink="http://www.w3.org/1999/xlink">
    <title>Untitled</title>
    <g id="Page-1" stroke="none" stroke-width="1" fill="none" fill-rule="evenodd">
        <path d="M137.61,115 C136.276667,133.153333 129.573333,147.446667 117.5,157.88 C105.426667,168.313333 89.4933333,173.526667 69.7,173.520006 C48.06,173.520006 31.0433333,166.24 18.65,151.68 C6.25666667,137.12 0.0533333333,117.12 0.04,91.68 L0.04,81.35 C0.04,65.1166667 2.9,50.82 8.62,38.46 C14.34,26.1 22.51,16.6133333 33.13,10 C43.75,3.4 56.0833333,0.0966666667 70.13,0.09 C89.5966667,0.09 105.263333,5.30666667 117.13,15.74 C128.996667,26.1733333 135.873333,40.8133333 137.76,59.66 L103.07,59.66 C102.223333,48.7733333 99.2,40.8866667 94,36 C88.8,31.1133333 80.86,28.66 70.18,28.64 C58.5866667,28.64 49.92,32.7933333 44.18,41.1 C38.44,49.4066667 35.4866667,62.29 35.32,79.75 L35.32,92.5 C35.32,110.74 38.08,124.073333 43.6,132.5 C49.12,140.926667 57.8333333,145.136667 69.74,145.13 C80.48,145.13 88.48,142.676667 93.74,137.77 C99,132.863333 102.033333,125.273333 102.84,115 L137.61,115 Z" id="Path" fill="#FFFFFF" fill-rule="nonzero"></path>
        <path d="M219.21,77.17 C215.234265,76.6026823 211.225751,76.2953629 207.21,76.25 C194.543333,76.25 186.236667,80.5366667 182.29,89.11 L182.29,171.16 L148.75,171.16 L148.75,45.77 L180.39,45.77 L181.31,60.77 C188.03,49.2566667 197.34,43.5 209.24,43.5 C212.772567,43.4689312 216.289355,43.9747013 219.67,45 L219.21,77.17 Z" id="Path" fill="#FFFFFF" fill-rule="nonzero"></path>
        <path d="M295,171.16 C293.296477,167.613111 292.162567,163.819915 291.64,159.92 C283.533333,168.96 272.986667,173.48 260,173.48 C247.72,173.48 237.543333,169.926667 229.47,162.82 C221.585833,156.140746 217.136303,146.260657 217.36,135.93 C217.36,122.636667 222.283333,112.44 232.13,105.34 C241.976667,98.24 256.213333,94.6466667 274.84,94.56 L290.25,94.56 L290.25,87.37 C290.25,81.5766667 288.763333,76.94 285.79,73.46 C282.816667,69.98 278.123333,68.2433333 271.71,68.25 C266.07,68.25 261.646667,69.6033333 258.44,72.31 C255.233333,75.0166667 253.63,78.7233333 253.63,83.43 L220.15,83.43 C220.152881,76.1604287 222.510562,69.0873857 226.87,63.27 C231.35,57.09 237.683333,52.24 245.87,48.72 C254.611238,45.1008506 264.000235,43.3074467 273.46,43.45 C288.906667,43.45 301.17,47.3333333 310.25,55.1 C319.33,62.8666667 323.87,73.78 323.87,87.84 L323.87,142.19 C323.95,154.09 325.616667,163.09 328.87,169.19 L328.87,171.19 L295,171.16 Z M267.31,147.87 C272.06911,147.914393 276.765284,146.780715 280.98,144.57 C284.891232,142.612188 288.121684,139.52113 290.25,135.7 L290.25,114.14 L277.75,114.14 C260.983333,114.14 252.056667,119.936667 250.97,131.53 L250.86,133.53 C250.751047,137.444244 252.358402,141.210569 255.26,143.84 C258.2,146.533333 262.22,147.876667 267.32,147.87 L267.31,147.87 Z" id="Shape" fill="#FFFFFF" fill-rule="nonzero"></path>
        <polygon id="Path" fill="#FFFFFF" fill-rule="nonzero" points="378.58 144.16 439.89 144.16 439.89 171.16 335.82 171.16 335.82 150.77 394.82 72.77 337.56 72.77 337.56 45.77 438 45.77 438 65.5"></polygon>
        <path d="M498.2,123.76 L521.37,45.76 L557.3,45.76 L506.89,190.63 L504.11,197.24 C496.61,213.62 484.24,221.81 467,221.81 C461.976948,221.788941 456.982841,221.048075 452.17,219.61 L452.17,194.23 L457.27,194.34 C463.603333,194.34 468.333333,193.376667 471.46,191.45 C474.586667,189.523333 477.04,186.316667 478.82,181.83 L482.76,171.51 L438.86,45.77 L474.86,45.77 L498.2,123.76 Z" id="Path" fill="#FFFFFF" fill-rule="nonzero"></path>
        <polygon id="Path" fill="#FFFFFF" fill-rule="nonzero" points="864.68 204.6 829.92 204.6 762.23 93.6 762.23 204.6 727.46 204.6 727.46 35.86 762.23 35.86 830 147.12 830 35.86 864.65 35.86"></polygon>
        <polygon id="Path" fill="#FFFFFF" fill-rule="nonzero" points="977.58 131.47 910.83 131.47 910.83 176.67 989.17 176.67 989.17 204.6 876.06 204.6 876.06 35.86 988.94 35.86 988.94 64 910.83 64 910.83 104.22 977.58 104.22"></polygon>
        <path d="M719.900001,119 C719.900001,154.367089 698.594846,186.251518 665.919529,199.784983 C633.244213,213.318447 595.633925,205.835619 570.627047,180.825881 C545.620169,155.816142 538.141643,118.204999 551.678844,85.531231 C565.216046,52.8574627 597.102912,31.5559553 632.47,31.56 C655.65961,31.56 677.899289,40.7727211 694.295882,57.1711896 C710.692475,73.569658 719.902652,95.8103897 719.900001,119 L719.900001,119 Z M694.34,102 L700.84,102 C694.01818,74.6393512 671.575797,53.95808 643.75,49.39 L643.75,57.04 C643.750005,60.0570966 641.307092,62.5044843 638.29,62.51 L629.75,62.51 C627.924847,62.507113 626.219872,63.4196875 625.21,64.94 L622.36,69.21 C621.603103,70.3376441 620.45641,71.146027 619.14,71.48 L614.04,72.75 C611.608673,73.3594518 609.902679,75.5434532 609.9,78.05 L609.9,79.6 C609.9,82.6209976 612.349002,85.07 615.37,85.07 L647.12,85.07 C648.550858,85.1502656 649.911954,85.7144503 650.98,86.67 L653.42,89.11 C654.441107,90.1377998 655.831202,90.714005 657.28,90.71 L660.84,90.71 C663.512136,90.7232941 665.783561,92.6652781 666.212015,95.3028745 C666.64047,97.9404709 665.100533,100.501577 662.57,101.36 L645.89,107 C644.515529,107.45944 643.01455,107.351456 641.72,106.7 L636.53,104.11 C633.850711,102.783695 630.899574,102.098977 627.91,102.11 L627.6,102.11 C623.459971,102.274645 619.445796,103.579252 616,105.88 L606.28,113.17 C601.432405,116.809629 598.58,122.518145 598.58,128.58 L598.58,133.53 C598.843379,138.582238 600.834514,143.390618 604.22,147.15 C607.83241,150.761814 612.731702,152.790596 617.84,152.79 L627,152.79 C630.020998,152.79 632.47,155.239002 632.47,158.26 L632.47,168.8 L632.47,168.8 C632.626693,173.097979 633.622023,177.323883 635.4,181.24 C637.059597,184.552293 640.445203,186.645565 644.15,186.65 C647.373794,186.469111 650.353029,184.873354 652.29,182.29 L656.89,175.4 C659.472034,171.684657 662.423766,168.240411 665.7,165.12 C666.564555,164.323923 667.153009,163.273112 667.38,162.12 L668.9,154.07 C669.054073,153.24642 669.396302,152.46956 669.9,151.8 L676.5,143 C677.209484,142.05765 677.592177,140.90957 677.59,139.73 L677.59,135.73 C677.592655,134.280186 677.018579,132.888843 675.994343,131.862731 C674.970106,130.836618 673.579816,130.259998 672.13,130.26 L669.23,130.26 C667.405297,130.261088 665.70112,129.34894 664.69,127.83 L660.02,120.83 C659.075696,119.411894 658.846087,117.634761 659.398952,116.023217 C659.951818,114.411673 661.224019,113.149761 662.84,112.61 L663.77,112.3 C664.332573,112.135603 664.914087,112.044846 665.5,112.03 C666.559338,112.083623 667.589388,112.396071 668.5,112.94 L674.92,117.22 C675.82799,117.771248 676.859077,118.087448 677.92,118.14 C678.766767,118.108963 679.599192,117.911899 680.37,117.56 L685.79,114.85 C687.634758,113.919007 688.795891,112.026361 688.79,109.96 L688.79,107.52 C688.773597,106.045813 689.354043,104.627644 690.399336,103.588001 C691.44463,102.548358 692.865924,101.975607 694.34,102 L694.34,102 Z" id="Shape" fill="#FFFFFF" fill-rule="nonzero"></path>
        <circle id="Oval" fill="#FFFFFF" fill-rule="nonzero" cx="537.27" cy="190.95" r="15.43"></circle>
    </g>
</svg>