<?xml version="1.0" encoding="UTF-8"?>
<svg width="855px" height="180px" viewBox="0 0 855 180" version="1.1" xmlns="http://www.w3.org/2000/svg" xmlns:xlink="http://www.w3.org/1999/xlink">
    <title>Untitled</title>
    <g id="Page-1" stroke="none" stroke-width="1" fill="none" fill-rule="evenodd">
        <path d="M731.17,149.4 C729.289368,149.505958 727.416304,149.087029 725.76,148.19 C723.96367,146.906375 722.398125,145.327305 721.13,143.52 L636,31.07 L636,140.57 C636,146.68 633.47,149.4 627.81,149.4 C621.81,149.4 619.2,146.68 619.2,140.57 L619.2,9.84 C619.2,6.78 619.93,4.44 621.37,2.84 C622.883076,1.27663776 624.997022,0.441993642 627.17,0.55 C628.905885,0.437530165 630.638434,0.815225771 632.17,1.64 C633.81864,2.88875362 635.233718,4.41893288 636.35,6.16 L721.56,118.45 L721.56,9.21 C721.56,3.21 724.15,0.59 729.97,0.59 C735.79,0.59 738.37,3.25 738.37,9.21 L738.37,140.78 C738.51732,143.105643 737.805621,145.404431 736.37,147.24 C735.062616,148.723522 733.143714,149.520605 731.17,149.4 Z" id="Path" fill="#FFFFFF" fill-rule="nonzero"></path>
        <path d="M769.81,147.91 C762.81,147.91 759.71,144.8 759.71,137.82 L759.71,12.17 C759.71,5.17 762.83,2.07 769.81,2.07 L847.15,2.07 C852.22,2.07 854.49,4.21 854.49,8.99 C854.49,14.07 852.22,16.34 847.15,16.34 L777.37,16.34 L777.37,66.7 L842.49,66.7 C847.56,66.7 849.83,68.9 849.83,73.83 C849.83,78.76 847.56,80.96 842.49,80.96 L777.37,80.96 L777.37,133.65 L847.15,133.65 C852.22,133.65 854.49,135.85 854.49,140.78 C854.49,145.71 852.22,147.91 847.15,147.91 L769.81,147.91 Z" id="Path" fill="#FFFFFF" fill-rule="nonzero"></path>
        <path d="M525.27,150 C483.881142,149.986195 450.338098,116.426364 450.345,75.0375042 C450.351904,33.6486442 483.906139,0.100004169 525.295,0.100004169 C566.683861,0.100004169 600.238096,33.6486442 600.245,75.0375042 C600.251902,116.426364 566.708858,149.986195 525.32,150 L525.27,150 Z M525.16,16.73 C492.99332,16.7355241 466.920003,42.8133202 466.920003,74.9800011 C466.920003,107.146682 492.993324,133.224476 525.160004,133.229999 C557.326684,133.23552 583.408955,107.166679 583.420003,75 L583.420003,74.88 C583.332072,42.7751411 557.324874,16.7724117 525.22,16.69 L525.16,16.73 Z" id="Shape" fill="#FFFFFF" fill-rule="nonzero"></path>
        <path d="M277.62,146.86 C275.01,146.86 273.07,146.09 271.83,144.54 C270.557238,142.925543 269.978087,140.871537 270.22,138.83 C270.504068,136.346233 271.60093,134.025947 273.34,132.23 L318.34,73.73 L276.55,73.73 C271.883333,73.73 269.566667,71.4133333 269.599645,66.78 C269.633333,62.1466667 271.95,59.8133333 276.55,59.78 L330.41,59.78 C333.41,59.78 335.59,60.56 337.01,62.1 C338.42581,63.6093634 339.109226,65.6632669 338.88,67.72 C338.611153,70.1457734 337.582095,72.424403 335.94,74.23 L290.46,133.09 L334.34,133.09 C339.093333,133.09 341.47,135.346667 341.47,139.86 C341.47,144.526667 339.093333,146.86 334.34,146.86 L277.62,146.86 Z" id="Path" fill="#FFFFFF" fill-rule="nonzero"></path>
        <path d="M377,179.73 C373.84,179.73 371.73,178.62 370.56,176.34 C369.39,174.06 369.48,171.34 370.84,168.28 L381.45,144.54 L349.62,70.69 C348.26,67.63 348.22,64.9 349.51,62.55 C350.8,60.2 353.37,59.05 357.21,59.05 C359.000468,58.9654193 360.765647,59.4985033 362.21,60.56 C363.809924,62.0129541 365.017214,63.8462477 365.72,65.89 L390.59,127.25 L415.83,65.89 C416.83,63.25 418.07,61.43 419.41,60.48 C421.088806,59.4386028 423.047528,58.9393207 425.02,59.05 C428.02,59.05 430.02,60.19 431.19,62.53 C432.309039,65.0942971 432.239513,68.0217186 431,70.53 L386.33,173.06 C385.19,175.69 383.9,177.48 382.5,178.38 C380.831466,179.341674 378.924175,179.809827 377,179.73 Z" id="Path" fill="#FFFFFF" fill-rule="nonzero"></path>
        <path d="M251.17,59.71 C249.281659,59.71 247.470659,60.4601407 246.1354,61.7953997 C244.800141,63.1306587 244.05,64.9416586 244.05,66.83 L244.05,66.83 L244.05,71 C226.533763,54.8133875 199.310459,55.5291796 182.669037,72.6139117 C166.027616,89.6986439 166.027616,116.931356 182.669037,134.016088 C199.310459,151.10082 226.533763,151.816613 244.05,135.63 L244.05,139.77 C243.921941,143.693052 246.988772,146.981805 250.911202,147.127692 C254.833631,147.273579 258.136288,144.221726 258.3,140.3 L258.3,66.84 C258.3,64.9490064 257.548806,63.135463 256.211671,61.7983287 C254.874537,60.4611943 253.060994,59.71 251.17,59.71 Z M244.05,103.35 C244.022419,119.733327 230.733351,133.000002 214.35,133.000002 L214.35,133.000002 C197.944227,133.005514 184.639218,119.712431 184.630015,103.306659 C184.620822,86.9008871 197.910917,73.5928933 214.316686,73.5800015 C230.722455,73.5671284 244.033433,86.8542341 244.05,103.26 L244.05,103.35 Z" id="Shape" fill="#FFFFFF" fill-rule="nonzero"></path>
        <path d="M169.54,66.74 C169.54,68.6256892 168.790913,70.4341456 167.457529,71.7675292 C166.124146,73.1009129 164.315689,73.85 162.43,73.85 L161.5,73.85 C145.118274,73.8499851 131.83207,87.1182889 131.81,103.5 L131.81,103.5 C131.43,104.96 131.58,127.56 131.71,140.93 C131.464058,142.802537 130.481179,144.499561 128.979343,145.644712 C127.477506,146.789862 125.580847,147.288486 123.71,147.03 L123.52,147.03 C119.982623,146.378224 117.440826,143.25605 117.52,139.66 L117.52,67 C117.52,63.0622097 120.71221,59.87 124.65,59.87 L125.03,59.87 C128.901345,60.2207785 131.843564,63.5034913 131.77,67.39 L131.77,71.18 C139.848054,63.7013286 150.451572,59.5477781 161.46,59.5499991 L162.39,59.5499991 C164.275689,59.5499991 166.084146,60.2990871 167.417529,61.6324708 C168.750913,62.9658544 169.5,64.7743108 169.5,66.66 L169.5,66.66 L169.54,66.74 Z" id="Path" fill="#FFFFFF" fill-rule="nonzero"></path>
        <path d="M61.37,146.68 C27.3851579,146.229888 0.199887929,118.314842 0.65,84.33 C1.10011207,50.3451579 29.0151579,23.1598879 63,23.61 C78.2484822,23.985741 92.650126,30.7009514 102.74,42.14 C104.63468,44.087845 105.309387,46.9174264 104.497512,49.510643 C103.685636,52.1038595 101.517796,54.043506 98.8506069,54.5631366 C96.1834178,55.0827672 93.445986,54.098782 91.72,52 C84.3235653,43.6285646 73.7772956,38.7122857 62.61,38.43 C36.8017336,38.43 15.88,59.3517336 15.88,85.16 C15.88,110.968266 36.8017336,131.89 62.61,131.89 C73.7792781,131.616161 84.3287595,126.698384 91.72,118.32 C93.4593582,116.2824 96.1641806,115.344017 98.791743,115.866604 C101.419305,116.389191 103.559226,118.291128 104.386554,120.839208 C105.213882,123.387287 104.599402,126.183542 102.78,128.15 C92.6742005,139.587719 78.2583021,146.295569 63,146.66 L61.37,146.68 Z" id="Path" fill="#FFFFFF" fill-rule="nonzero"></path>
        <circle id="Oval" fill="#FFFFFF" fill-rule="nonzero" cx="437.8" cy="140.47" r="9.49"></circle>
    </g>
</svg>