<svg xmlns="http://www.w3.org/2000/svg" viewBox="0 0 1493.22 741.91"><defs><style>.cls-1{fill:#00ade8;}.cls-2{fill:#fff;}</style></defs><g id="Layer_2" data-name="Layer 2"><g id="Layer_1-2" data-name="Layer 1"><rect class="cls-1" width="1493.22" height="741.91"/><path class="cls-2" d="M389.61,375q-2,27.23-20.11,42.88t-47.8,15.64q-32.46,0-51.05-21.84t-18.61-60V341.35q0-24.35,8.58-42.89T285.13,270q15.93-9.9,37-9.91,29.2,0,47,15.65t20.63,43.92H355.07Q353.8,303.33,346,296t-23.82-7.36q-17.39,0-26,12.46t-8.86,38.65v12.75q0,27.36,8.28,40t26.14,12.63q16.11,0,24-7.36t9.1-22.77Z"/><path class="cls-2" d="M471.21,337.17a92.33,92.33,0,0,0-12-.92q-19,0-24.92,12.86v82.05H400.75V305.77h31.64l.92,15q10.08-17.27,27.93-17.27A34.88,34.88,0,0,1,471.67,305Z"/><path class="cls-2" d="M547,431.16a37.45,37.45,0,0,1-3.36-11.24Q531.48,433.48,512,433.48q-18.42,0-30.53-10.66a34.27,34.27,0,0,1-12.11-26.89q0-19.94,14.77-30.59t42.71-10.78h15.41v-7.19q0-8.69-4.46-13.91t-14.08-5.21q-8.46,0-13.27,4.06t-4.81,11.12H472.15a33.64,33.64,0,0,1,6.72-20.16q6.72-9.27,19-14.55a69.39,69.39,0,0,1,27.59-5.27q23.17,0,36.79,11.65t13.62,32.74v54.35q.12,17.85,5,27v2Zm-27.69-23.29a28.85,28.85,0,0,0,13.67-3.3,21.76,21.76,0,0,0,9.27-8.87V374.14H529.75q-25.15,0-26.78,17.39l-.11,2a13.41,13.41,0,0,0,4.4,10.31Q511.67,407.88,519.32,407.87Z"/><path class="cls-2" d="M630.58,404.16h61.31v27H587.82V410.77l59-78H589.56v-27H690V325.5Z"/><path class="cls-2" d="M750.2,383.76l23.17-78H809.3L758.89,450.63l-2.78,6.61Q744.86,481.81,719,481.81a52.57,52.57,0,0,1-14.83-2.2V454.23l5.1.11q9.5,0,14.19-2.89t7.36-9.62l3.94-10.32L690.86,305.77h36Z"/><path class="cls-2" d="M1116.68,464.6h-34.76l-67.69-111v111H979.46V295.86h34.77L1082,407.12V295.86h34.65Z"/><path class="cls-2" d="M1229.58,391.47h-66.75v45.2h78.34V464.6H1128.06V295.86h112.88V324h-78.11v40.22h66.75Z"/><path class="cls-2" d="M971.9,379a87.44,87.44,0,1,1-87.43-87.44A87.43,87.43,0,0,1,971.9,379ZM946.34,362h6.5a70.63,70.63,0,0,0-57.09-52.61v7.65a5.47,5.47,0,0,1-5.46,5.47h-8.54a5.44,5.44,0,0,0-4.54,2.43l-2.85,4.27a5.51,5.51,0,0,1-3.22,2.27l-5.1,1.27a5.47,5.47,0,0,0-4.14,5.3v1.55a5.47,5.47,0,0,0,5.47,5.47h31.75a6.32,6.32,0,0,1,3.86,1.6l2.44,2.44a5.42,5.42,0,0,0,3.86,1.6h3.56a5.47,5.47,0,0,1,1.73,10.65L897.89,367a5.44,5.44,0,0,1-4.17-.3l-5.19-2.59a19.27,19.27,0,0,0-8.62-2h-.31A22.5,22.5,0,0,0,868,365.88l-9.72,7.29a19.27,19.27,0,0,0-7.7,15.41v4.95a22.07,22.07,0,0,0,5.64,13.62,19.26,19.26,0,0,0,13.62,5.64H879a5.47,5.47,0,0,1,5.47,5.47V428.8h0a33,33,0,0,0,2.93,12.44,9.8,9.8,0,0,0,8.75,5.41,10.94,10.94,0,0,0,8.14-4.36l4.6-6.89a67,67,0,0,1,8.81-10.28,5.53,5.53,0,0,0,1.68-3l1.52-8.05a5.44,5.44,0,0,1,1-2.27L928.5,403a5.42,5.42,0,0,0,1.09-3.27v-4a5.46,5.46,0,0,0-5.46-5.47h-2.9a5.45,5.45,0,0,1-4.54-2.43l-4.67-7a5.47,5.47,0,0,1,2.82-8.22l.93-.31a6.78,6.78,0,0,1,1.73-.27,6.49,6.49,0,0,1,3,.91l6.42,4.28a6.39,6.39,0,0,0,3,.92,6.47,6.47,0,0,0,2.45-.58l5.42-2.71a5.46,5.46,0,0,0,3-4.89v-2.44A5.46,5.46,0,0,1,946.34,362Z"/><circle class="cls-2" cx="789.27" cy="450.95" r="15.43"/></g></g></svg>