<?xml version="1.0" encoding="UTF-8"?>
<svg width="216px" height="44px" viewBox="0 0 216 44" version="1.1" xmlns="http://www.w3.org/2000/svg" xmlns:xlink="http://www.w3.org/1999/xlink">
    <title>Untitled 2</title>
    <g id="Page-1" stroke="none" stroke-width="1" fill="none" fill-rule="evenodd">
        <g id="logo" fill="#FFFFFF" fill-rule="nonzero">
            <path d="M33.19,1 C28.1593328,0.999972842 24.0765301,5.06935992 24.06,10.1 L24.06,20.19 C23.12,20.26 22.16,20.3 21.16,20.3 C20.16,20.3 19.21,20.3 18.26,20.39 L18.26,10.1 C18.2599999,5.05764029 14.1723597,0.970000136 9.13,0.970000136 C4.08764029,0.970000136 0,5.05764029 0,10.1 L0,34.22 C0,39.2623598 4.08764023,43.35 9.13,43.35 C14.1723598,43.35 18.26,39.2623598 18.26,34.22 L18.26,24.13 C19.2,24.07 20.17,24.03 21.16,24.03 C22.15,24.03 23.16,24.03 24.06,23.93 L24.06,34.22 C24.2230546,39.1475156 28.2647874,43.057717 33.195,43.057717 C38.1252126,43.057717 42.1669454,39.1475156 42.33,34.22 L42.33,10.1 C42.3079768,5.06774538 38.2223028,0.999951809 33.19,1 Z M9.13,4.73 C12.0990218,4.73 14.5089832,7.13099866 14.52,10.1 L14.52,20.79 C11.8476889,21.1835443 9.23868456,21.9265726 6.76,23 C5.69042069,23.4755745 4.68295597,24.0800533 3.76,24.8 L3.76,10.1 C3.77096757,7.13878571 6.16878571,4.74096757 9.13,4.73 Z M14.52,34.22 C14.52,37.1968148 12.1068148,39.61 9.13,39.61 C6.1531852,39.61 3.74,37.1968148 3.74,34.22 L3.74,31.8 C3.74,29.67 5.43,27.64 8.27,26.38 C10.2708234,25.5171656 12.3697776,24.9025919 14.52,24.55 L14.52,34.22 Z M33.19,39.6 C30.218708,39.6 27.81,37.191292 27.81,34.22 L27.81,23.54 C30.4817993,23.14943 33.0907592,22.4097764 35.57,21.34 C36.6408133,20.8709285 37.6486577,20.2695814 38.57,19.55 L38.57,34.22 C38.5644967,37.1890094 36.1590094,39.5944967 33.19,39.6 L33.19,39.6 Z M34.05,17.93 C32.0521259,18.7913965 29.9566582,19.4059327 27.81,19.76 L27.81,10.1 C27.9343033,7.21613628 30.3084586,4.94210989 33.195,4.94210989 C36.0815414,4.94210989 38.4556967,7.21613628 38.58,10.1 L38.58,12.52 C38.58,14.65 36.89,16.67 34.05,17.93 Z" id="Shape"></path>
            <path d="M164.39,15.63 C158.697249,15.6355216 154.086322,20.253908 154.09,25.9466602 C154.093682,31.6394124 158.710577,36.2518334 164.40333,36.2499952 C170.096083,36.2481559 174.71,31.6327534 174.71,25.94 L174.71,25.94 C174.71,20.2459442 170.094056,15.63 164.4,15.63 L164.39,15.63 Z M171.39,25.94 C171.39,29.8059932 168.255993,32.94 164.39,32.94 C160.524007,32.94 157.39,29.8059932 157.39,25.94 C157.39,22.0740068 160.524007,18.94 164.39,18.94 C168.255993,18.94 171.39,22.0740068 171.39,25.94 L171.39,25.94 Z" id="Shape"></path>
            <path d="M102.4,15.7 C101.477684,15.7 100.73,16.4476845 100.73,17.37 L100.73,17.37 L100.73,18.37 C96.6222308,14.5881913 90.2504062,14.7636386 86.3569663,18.7657594 C82.4635265,22.7678802 82.4635265,29.1421198 86.3569663,33.1442406 C90.2504062,37.1463614 96.6222308,37.3218087 100.73,33.54 L100.73,34.54 C100.708564,35.1366335 101.007057,35.6993816 101.513038,36.0162624 C102.01902,36.3331433 102.655621,36.3560151 103.183038,36.0762624 C103.710456,35.7965097 104.048564,35.2566335 104.07,34.66 L104.07,17.37 C104.07,16.9270885 103.894054,16.5023174 103.580868,16.1891317 C103.267683,15.8759459 102.842912,15.7 102.4,15.7 Z M100.73,25.94 C100.73,29.8059932 97.5959932,32.94 93.73,32.94 L93.73,32.94 C89.8640068,32.94 86.73,29.8059932 86.73,25.94 C86.73,22.0740068 89.8640068,18.94 93.73,18.94 C97.5959932,18.94 100.73,22.0740068 100.73,25.94 L100.73,25.94 Z" id="Shape"></path>
            <path d="M120.35,17.3 C120.358051,17.7480864 120.185665,18.1806054 119.871603,18.5003098 C119.55754,18.8200142 119.128159,19.0000723 118.68,19 L118.47,19 C114.604007,19 111.47,22.1340068 111.47,26 L111.47,26 C111.38,26.35 111.47,31.65 111.47,34.79 C111.345723,35.699659 110.510442,36.3384032 109.6,36.22 L109.6,36.22 C108.766593,36.0718065 108.167027,35.3361685 108.19,34.49 L108.19,17.49 C108.19,16.5676845 108.937684,15.82 109.86,15.82 L109.95,15.82 C110.855726,15.9035262 111.544298,16.6705432 111.53,17.58 L111.53,18.47 C113.43421,16.7076381 115.935414,15.7321686 118.53,15.7399532 L118.75,15.7399532 C119.672316,15.7399532 120.42,16.4876845 120.42,17.41 L120.42,17.41 L120.35,17.3 Z" id="Path"></path>
            <path d="M194.59,24.28 L194.59,34.5 C194.59,34.9446496 194.41269,35.3709432 194.097338,35.684418 C193.781986,35.9978928 193.354642,36.1726626 192.91,36.17003 L192.91,36.17003 C192.468003,36.17003 192.044252,35.9937436 191.732653,35.6802671 C191.421054,35.3667905 191.247337,34.9419895 191.25,34.5 L191.25,32.83 L191.25,32.83 L191.25,24.28 C191.238974,21.3899348 188.890081,19.0544635 186,19.06 C185.880207,19.0500289 185.759793,19.0500289 185.64,19.06 C182.861963,19.3056781 180.742996,21.6513666 180.78,24.44 L180.78,26.44 L180.78,26.44 L180.78,32.79 L180.78,32.79 L180.78,34.46 C180.78,35.3823155 180.032316,36.13 179.11,36.13 C178.187684,36.13 177.44,35.3823155 177.44,34.46 L177.44,17.38 C177.44,16.4576845 178.187684,15.71 179.11,15.71 C180.032316,15.71 180.78,16.4576845 180.78,17.38 L180.78,17.54 C182.146438,16.4395341 183.827451,15.80215 185.58,15.72 C187.851695,15.5975483 190.078522,16.3854978 191.767643,17.9094601 C193.456763,19.4334224 194.468883,21.5677229 194.58,23.84 C194.58,24 194.59,24.12 194.59,24.28 Z" id="Path"></path>
            <path d="M80.23,9.68 L80.23,34.68 C80.2782458,35.2983195 79.9756871,35.891469 79.4468083,36.2154038 C78.9179294,36.5393387 78.2520706,36.5393387 77.7231917,36.2154038 C77.1943129,35.891469 76.8917542,35.2983195 76.94,34.68 L76.94,23.38 L59.73,23.38 L59.73,34.67 C59.7299999,35.5812698 58.9912698,36.3199999 58.08,36.3199999 C57.1687302,36.3199999 56.43,35.5812698 56.43,34.67 L56.43,9.67 C56.43,8.75873022 57.1687302,8.02000014 58.08,8.02000014 C58.9912698,8.02000014 59.7299999,8.75873022 59.73,9.67 L59.73,9.67 L59.73,20.5200001 L76.92,20.5200001 L76.92,9.68 C76.987016,8.82112203 77.7035115,8.15835498 78.565,8.15835498 C79.4264885,8.15835498 80.142984,8.82112203 80.21,9.68 L80.21,9.68 L80.23,9.68 Z" id="Path"></path>
            <path d="M151.59,25.06 L151.59,25.06 L151.59,34.49 C151.5845,35.4139308 150.833947,36.1600164 149.91,36.16 L149.91,36.16 C148.987684,36.16 148.24,35.4123155 148.24,34.49 L148.24,34.49 L148.24,25.89 L148.24,25.89 L148.24,23.63 C148.277513,21.9651423 147.423985,20.4067375 146.000933,19.5418215 C144.57788,18.6769055 142.801498,18.6368797 141.340933,19.4368215 C139.880367,20.2367632 138.957513,21.7551423 138.92,23.42 L138.92,23.63 L138.92,23.63 L138.92,34.49 C138.941436,35.0866335 138.642943,35.6493816 138.136962,35.9662624 C137.63098,36.2831433 136.994379,36.3060151 136.466962,36.0262624 C135.939544,35.7465097 135.601436,35.2066335 135.58,34.61 C135.569839,34.5706453 135.569839,34.5293547 135.58,34.49 L135.58,25.89 L135.58,25.89 L135.58,23.63 L135.58,23.63 C135.535056,21.124684 133.520922,19.1013313 131.015837,19.0449468 C128.510753,18.9885622 126.407621,20.9192434 126.25,23.42 L126.25,23.42 L126.25,34.49 C126.271436,35.0866335 125.972943,35.6493816 125.466962,35.9662624 C124.96098,36.2831433 124.324379,36.3060151 123.796962,36.0262624 C123.269544,35.7465097 122.931436,35.2066335 122.91,34.61 C122.899839,34.5706453 122.899839,34.5293547 122.91,34.49 L122.91,17.38 C122.90198,16.9380126 123.070584,16.5110818 123.378439,16.1938404 C123.686295,15.876599 124.107971,15.6952533 124.55,15.69 C125.394969,15.6820488 126.114352,16.3029448 126.23,17.14 C129.734087,14.627376 134.59906,15.3438538 137.23,18.76 C139.315646,16.0382603 142.903895,14.9483562 146.150964,16.050323 C149.398032,17.1522899 151.581735,20.2010376 151.58,23.63 L151.59,25.06 Z" id="Path"></path>
            <path d="M215,18.11 L203.72,42.48 C203.272789,43.220083 202.341278,43.5065477 201.555485,43.1456462 C200.769692,42.7847446 200.380011,41.8914782 200.65,41.07 L203.65,34.51 L196.07,18.12 C195.755606,17.5966059 195.744322,16.9452428 196.040398,16.4112728 C196.336473,15.8773028 196.894928,15.5418487 197.505398,15.5312728 C198.115867,15.5206969 198.685606,15.8366059 199,16.36 L199,16.36 C199.061893,16.4571441 199.112234,16.5611816 199.15,16.67 L205.53,30.45 L211.91,16.67 C212.071074,16.057652 212.559119,15.5855635 213.176481,15.4449265 C213.793844,15.3042894 214.438209,15.518411 214.848616,16.0005739 C215.259023,16.4827367 215.367456,17.1530336 215.13,17.74 C215.090295,17.8576013 215.040093,17.9713931 214.98,18.08 L215,18.11 Z" id="Path"></path>
        </g>
    </g>
</svg>