<?xml version="1.0" encoding="UTF-8"?>
<svg width="43px" height="44px" viewBox="0 0 43 44" version="1.1" xmlns="http://www.w3.org/2000/svg" xmlns:xlink="http://www.w3.org/1999/xlink">
    <title>Untitled 3</title>
    <g id="Page-1" stroke="none" stroke-width="1" fill="none" fill-rule="evenodd">
        <path d="M33.19,1 C28.1593328,0.999972842 24.0765301,5.06935992 24.06,10.1 L24.06,20.19 C23.12,20.26 22.16,20.3 21.16,20.3 C20.16,20.3 19.21,20.3 18.26,20.39 L18.26,10.1 C18.2599999,5.05764029 14.1723597,0.970000136 9.13,0.970000136 C4.08764029,0.970000136 0,5.05764029 0,10.1 L0,34.22 C0,39.2623598 4.08764023,43.35 9.13,43.35 C14.1723598,43.35 18.26,39.2623598 18.26,34.22 L18.26,24.13 C19.2,24.07 20.17,24.03 21.16,24.03 C22.15,24.03 23.16,24.03 24.06,23.93 L24.06,34.22 C24.2230546,39.1475156 28.2647874,43.057717 33.195,43.057717 C38.1252126,43.057717 42.1669454,39.1475156 42.33,34.22 L42.33,10.1 C42.3079768,5.06774538 38.2223028,0.999951809 33.19,1 Z M9.13,4.73 C12.0990218,4.73 14.5089832,7.13099866 14.52,10.1 L14.52,20.79 C11.8476889,21.1835443 9.23868456,21.9265726 6.76,23 C5.69042069,23.4755745 4.68295597,24.0800533 3.76,24.8 L3.76,10.1 C3.77096757,7.13878571 6.16878571,4.74096757 9.13,4.73 Z M14.52,34.22 C14.52,37.1968148 12.1068148,39.61 9.13,39.61 C6.1531852,39.61 3.74,37.1968148 3.74,34.22 L3.74,31.8 C3.74,29.67 5.43,27.64 8.27,26.38 C10.2708234,25.5171656 12.3697776,24.9025919 14.52,24.55 L14.52,34.22 Z M33.19,39.6 C30.218708,39.6 27.81,37.191292 27.81,34.22 L27.81,23.54 C30.4817993,23.14943 33.0907592,22.4097764 35.57,21.34 C36.6408133,20.8709285 37.6486577,20.2695814 38.57,19.55 L38.57,34.22 C38.5644967,37.1890094 36.1590094,39.5944967 33.19,39.6 L33.19,39.6 Z M34.05,17.93 C32.0521259,18.7913965 29.9566582,19.4059327 27.81,19.76 L27.81,10.1 C27.9343033,7.21613628 30.3084586,4.94210989 33.195,4.94210989 C36.0815414,4.94210989 38.4556967,7.21613628 38.58,10.1 L38.58,12.52 C38.58,14.65 36.89,16.67 34.05,17.93 Z" id="Shape" fill="#FFFFFF" fill-rule="nonzero"></path>
        <path d="M33.19,1 C28.1593328,0.999972842 24.0765301,5.06935992 24.06,10.1 L24.06,20.19 C23.12,20.26 22.16,20.3 21.16,20.3 C20.16,20.3 19.21,20.3 18.26,20.39 L18.26,10.1 C18.2599999,5.05764029 14.1723597,0.970000136 9.13,0.970000136 C4.08764029,0.970000136 0,5.05764029 0,10.1 L0,34.22 C0,39.2623598 4.08764023,43.35 9.13,43.35 C14.1723598,43.35 18.26,39.2623598 18.26,34.22 L18.26,24.13 C19.2,24.07 20.17,24.03 21.16,24.03 C22.15,24.03 23.16,24.03 24.06,23.93 L24.06,34.22 C24.2230546,39.1475156 28.2647874,43.057717 33.195,43.057717 C38.1252126,43.057717 42.1669454,39.1475156 42.33,34.22 L42.33,10.1 C42.3079768,5.06774538 38.2223028,0.999951809 33.19,1 Z" id="Path"></path>
        <path d="M9.13,4.73 C12.0990218,4.73 14.5089832,7.13099866 14.52,10.1 L14.52,20.79 C11.8476889,21.1835443 9.23868456,21.9265726 6.76,23 C5.69042069,23.4755745 4.68295597,24.0800533 3.76,24.8 L3.76,10.1 C3.77096757,7.13878571 6.16878571,4.74096757 9.13,4.73 Z" id="Path"></path>
        <path d="M14.52,34.22 C14.52,37.1968148 12.1068148,39.61 9.13,39.61 C6.1531852,39.61 3.74,37.1968148 3.74,34.22 L3.74,31.8 C3.74,29.67 5.43,27.64 8.27,26.38 C10.2708234,25.5171656 12.3697776,24.9025919 14.52,24.55 L14.52,34.22 Z" id="Path"></path>
        <path d="M33.19,39.6 C30.218708,39.6 27.81,37.191292 27.81,34.22 L27.81,23.54 C30.4817993,23.14943 33.0907592,22.4097764 35.57,21.34 C36.6408133,20.8709285 37.6486577,20.2695814 38.57,19.55 L38.57,34.22 C38.5644967,37.1890094 36.1590094,39.5944967 33.19,39.6 L33.19,39.6 Z" id="Path"></path>
        <path d="M34.05,17.93 C32.0521259,18.7913965 29.9566582,19.4059327 27.81,19.76 L27.81,10.1 C27.9343033,7.21613628 30.3084586,4.94210989 33.195,4.94210989 C36.0815414,4.94210989 38.4556967,7.21613628 38.58,10.1 L38.58,12.52 C38.58,14.65 36.89,16.67 34.05,17.93 Z" id="Path"></path>
    </g>
</svg>