<svg xmlns="http://www.w3.org/2000/svg" viewBox="0 0 358.84 64.94"><defs><style>.cls-1{fill:#fff;}.cls-2{fill:#31b6ff;}.cls-3{fill:#31ef84;}</style></defs><g id="Layer_2" data-name="Layer 2"><g id="Layer_1-2" data-name="Layer 1"><g id="logo_white" data-name="logo white"><path class="cls-1" d="M91.59,17q4.55-4.39,12.42-4.39T116.37,17q4.53,4.38,4.53,12.38v9.91c0,5.34-1.51,9.46-4.53,12.39S109.22,56,104,56s-9.39-1.46-12.42-4.39-4.53-7.05-4.53-12.39V29.33Q87.06,21.34,91.59,17Zm5,30.11A9.65,9.65,0,0,0,104,49.87a9.59,9.59,0,0,0,7.31-2.81A10.57,10.57,0,0,0,114,39.48V29.1a10.61,10.61,0,0,0-2.66-7.59,9.58,9.58,0,0,0-7.31-2.8,9.65,9.65,0,0,0-7.37,2.8A10.61,10.61,0,0,0,94,29.1V39.48A10.57,10.57,0,0,0,96.64,47.06Z"/><path class="cls-1" d="M131.41,30.29h.6q2.56-5.07,9.55-5.08a11.69,11.69,0,0,1,6,1.53,10.39,10.39,0,0,1,4.08,4.3,13.61,13.61,0,0,1,1.47,6.47V55.18h-6.57V37.87a7.5,7.5,0,0,0-1.79-5.46,6.85,6.85,0,0,0-5.13-1.82,7.43,7.43,0,0,0-5.88,2.47c-1.46,1.66-2.18,4-2.18,7v15.1H125V25.75h6.39Z"/><path class="cls-1" d="M158.36,32.26a13.41,13.41,0,0,1,5.25-5.46,15.05,15.05,0,0,1,7.67-1.94,14.68,14.68,0,0,1,7.47,1.85,12.75,12.75,0,0,1,5,5.25,16.74,16.74,0,0,1,1.79,7.88v2.69H163.23a7.93,7.93,0,0,0,2.53,5.61,8.27,8.27,0,0,0,5.88,2.21A7.88,7.88,0,0,0,176.51,49a9.48,9.48,0,0,0,2.89-3.64l5.43,2.93A17,17,0,0,1,180,53.75Q176.9,56,171.52,56a15.35,15.35,0,0,1-7.85-2,13.77,13.77,0,0,1-5.31-5.55,17.22,17.22,0,0,1-1.88-8.15A16.88,16.88,0,0,1,158.36,32.26Zm18.18.15a7.51,7.51,0,0,0-5.32-1.88,7.77,7.77,0,0,0-5.43,1.88,7.92,7.92,0,0,0-2.51,5h15.59A7.57,7.57,0,0,0,176.54,32.41Z"/><path class="cls-1" d="M201,13.4l12.18,34.74h.6V13.4h6.86V55.18H208.77L196.65,20.44h-.59V55.18h-6.93V13.4Z"/><path class="cls-1" d="M230.14,27.24a14,14,0,0,1,8.54-2.38q5.79,0,9.1,2.95t3.32,8.33v19h-6.27v-3.7h-.78Q241.73,56,235.52,56a11.78,11.78,0,0,1-7.76-2.51,8.41,8.41,0,0,1-3-6.86,8.1,8.1,0,0,1,3.1-6.81A13.08,13.08,0,0,1,236,37.45h8.72V35.66a5.34,5.34,0,0,0-1.55-4,6.26,6.26,0,0,0-4.54-1.52,7.11,7.11,0,0,0-4.63,1.4,6.43,6.43,0,0,0-2.18,3.85l-6.08-2A12,12,0,0,1,230.14,27.24Zm2.57,22.27a6.37,6.37,0,0,0,4.06,1.13,8.06,8.06,0,0,0,5.73-2,7.22,7.22,0,0,0,2.21-5.53v-.53h-8.3a6.13,6.13,0,0,0-3.76,1,3.43,3.43,0,0,0-1.37,2.9A3.66,3.66,0,0,0,232.71,49.51Z"/><path class="cls-1" d="M262.68,29.45h.59q2.21-4.23,8-4.24,6,0,8.3,4.9h.6a9.42,9.42,0,0,1,3.28-3.61A11.15,11.15,0,0,1,296,27.93q2.78,2.71,2.77,7.67V55.18h-6.57V36a5.29,5.29,0,0,0-1.43-4,5.4,5.4,0,0,0-3.94-1.4,5.64,5.64,0,0,0-4.42,1.79,7.42,7.42,0,0,0-1.61,5.13V55.18H274.2V36a4.89,4.89,0,0,0-5.38-5.37,5.6,5.6,0,0,0-4.41,1.79,7.37,7.37,0,0,0-1.61,5.13V55.18h-6.51V25.75h6.39Z"/><path class="cls-1" d="M304,32.26a13.5,13.5,0,0,1,5.26-5.46,15,15,0,0,1,7.67-1.94,14.67,14.67,0,0,1,7.46,1.85,12.69,12.69,0,0,1,5,5.25,16.62,16.62,0,0,1,1.79,7.88v2.69H308.82a7.94,7.94,0,0,0,2.54,5.61,8.27,8.27,0,0,0,5.88,2.21A7.83,7.83,0,0,0,322.1,49a9.59,9.59,0,0,0,2.9-3.64l5.43,2.93a17.12,17.12,0,0,1-4.87,5.49Q322.49,56,317.12,56a15.3,15.3,0,0,1-7.85-2A13.86,13.86,0,0,1,304,48.47a17.22,17.22,0,0,1-1.88-8.15A16.88,16.88,0,0,1,304,32.26Zm18.18.15a7.46,7.46,0,0,0-5.31-1.88,7.77,7.77,0,0,0-5.43,1.88,7.88,7.88,0,0,0-2.51,5h15.58A7.57,7.57,0,0,0,322.13,32.41Z"/><path class="cls-1" d="M337.11,27.27q3.11-2.36,8.36-2.35a13.86,13.86,0,0,1,8.06,2.18,10.24,10.24,0,0,1,4.18,6l-6,1.8q-1-5-6.27-5a6.64,6.64,0,0,0-3.76.93,2.88,2.88,0,0,0-1.37,2.53,2.8,2.8,0,0,0,1.28,2.48,10.38,10.38,0,0,0,3.91,1.34l2,.36a23,23,0,0,1,8.45,2.9q2.83,1.88,2.83,6.06a8.28,8.28,0,0,1-3.28,7c-2.19,1.67-5.15,2.51-8.9,2.51a16,16,0,0,1-9.43-2.57,10.69,10.69,0,0,1-4.41-7.4l6.08-1.49Q340,51,346.66,50.94a7.28,7.28,0,0,0,4.3-1.1A3.34,3.34,0,0,0,352.51,47a2.79,2.79,0,0,0-1.4-2.5,12.66,12.66,0,0,0-4.45-1.44l-2-.35a19.07,19.07,0,0,1-7.82-2.93,6.87,6.87,0,0,1-2.81-6A7.77,7.77,0,0,1,337.11,27.27Z"/><path class="cls-2" d="M13,32.81A4.71,4.71,0,0,0,16.55,29a19.56,19.56,0,0,1,19.23-16h0A19.57,19.57,0,0,1,55.31,32.47v.05A19.48,19.48,0,0,1,35.79,52h-.23a4.77,4.77,0,0,0-4.36,3,16.14,16.14,0,0,1-4.47,6.1,1.58,1.58,0,0,0,.57,2.74,32.47,32.47,0,1,0-24-31.35c0,.87,0,1.74.11,2.59a1.57,1.57,0,0,0,2.58,1A16.12,16.12,0,0,1,13,32.81Z"/><path class="cls-3" d="M29.32,50.92a2.37,2.37,0,0,0,3.15-2.18v0a16.24,16.24,0,0,0-13.25-16,2.37,2.37,0,0,0-2.76,2.7A19.55,19.55,0,0,0,29.32,50.92Z"/><path class="cls-3" d="M1.53,41.82A16.17,16.17,0,0,0,0,48.41a16.26,16.26,0,0,0,20.29,16,1.73,1.73,0,0,0,.39-3.21A32.57,32.57,0,0,1,4.75,42,1.73,1.73,0,0,0,1.53,41.82Z"/></g></g></g></svg>